Coordinates
version=1
nRows=43
nColumns=12
inDegrees=yes

Units are S.I. units (second, meters, Newtons, ...)
Angles are in degrees

endheader
time	SC_y	SC_z	SC_x	AC_y	AC_z	AC_x	GH_y	GH_z	GH_yy	EL_x	PS_y
       0.0              -24.27          27.67          5.588          33.72         -14.63          1.351         -167.6         -5.361         -60.29          50.95          96.83
    0.0143              -24.27          27.67          5.591          33.72         -14.63          1.352         -167.5         -5.355          -60.3          50.96          96.83
    0.0286              -24.27          27.67          5.595          33.72         -14.62          1.352         -167.5         -5.348         -60.32          50.98          96.82
    0.0429              -24.27          27.67          5.599          33.73         -14.62          1.353         -167.4         -5.341         -60.33          50.99          96.81
   0.05721              -24.28          27.67          5.603          33.73         -14.62          1.354         -167.4         -5.333         -60.35           51.0           96.8
   0.07151              -24.28          27.67          5.607          33.73         -14.61          1.355         -167.4         -5.324         -60.36          51.02           96.8
   0.08581              -24.28          27.66          5.612          33.74         -14.61          1.356         -167.3         -5.316         -60.38          51.03          96.79
    0.1001              -24.28          27.66          5.617          33.74         -14.61          1.356         -167.2         -5.306          -60.4          51.05          96.78
    0.1144              -24.28          27.66          5.622          33.74          -14.6          1.357         -167.2         -5.296         -60.42          51.07          96.77
    0.1287              -24.29          27.66          5.628          33.75          -14.6          1.359         -167.1         -5.285         -60.44          51.09          96.75
     0.143              -24.29          27.66          5.634          33.75         -14.59           1.36         -167.1         -5.273         -60.47          51.11          96.74
    0.1573              -24.29          27.66          5.641          33.76         -14.59          1.361         -167.0          -5.26         -60.49          51.13          96.73
    0.1716              -24.29          27.66          5.648          33.76         -14.58          1.362         -166.9         -5.247         -60.52          51.15          96.72
    0.1859               -24.3          27.66          5.656          33.77         -14.58          1.364         -166.8         -5.232         -60.55          51.18           96.7
    0.2002               -24.3          27.66          5.664          33.77         -14.57          1.365         -166.7         -5.216         -60.58          51.21          96.68
    0.2145               -24.3          27.66          5.673          33.78         -14.56          1.367         -166.6         -5.199         -60.61          51.24          96.67
    0.2288              -24.31          27.65          5.683          33.79         -14.56          1.369         -166.5          -5.18         -60.65          51.27          96.65
    0.2431              -24.31          27.65          5.694           33.8         -14.55          1.371         -166.4          -5.16         -60.69          51.31          96.62
    0.2574              -24.31          27.65          5.705           33.8         -14.54          1.373         -166.3         -5.137         -60.74          51.35           96.6
    0.2717              -24.32          27.65          5.718          33.81         -14.53          1.375         -166.1         -5.113         -60.79          51.39          96.58
     0.286              -24.32          27.65          5.732          33.82         -14.52          1.378         -166.0         -5.086         -60.84          51.44          96.55
    0.3003              -24.33          27.64          5.748          33.84         -14.51          1.381         -165.8         -5.056          -60.9          51.49          96.52
    0.3146              -24.34          27.64          5.765          33.85         -14.49          1.384         -165.6         -5.024         -60.96          51.55          96.48
    0.3289              -24.34          27.64          5.784          33.86         -14.48          1.387         -165.4         -4.987         -61.03          51.61          96.45
    0.3432              -24.35          27.64          5.805          33.88         -14.46          1.391         -165.2         -4.947         -61.12          51.68           96.4
    0.3575              -24.36          27.63          5.828          33.89         -14.44          1.396         -164.9         -4.902          -61.2          51.76          96.36
    0.3718              -24.37          27.63          5.854          33.91         -14.42          1.401         -164.6         -4.852          -61.3          51.85          96.31
    0.3861              -24.38          27.62          5.884          33.94          -14.4          1.406         -164.3         -4.795         -61.42          51.95          96.25
    0.4004              -24.39          27.62          5.918          33.96         -14.38          1.412         -163.9         -4.732         -61.54          52.06          96.18
    0.4147               -24.4          27.61          5.955          33.99         -14.35          1.419         -163.5         -4.659         -61.69          52.19          96.11
     0.429              -24.42          27.61          5.999          34.02         -14.31          1.428         -163.0         -4.576         -61.85          52.34          96.02
    0.4433              -24.44           27.6          6.049          34.06         -14.27          1.437         -162.5         -4.481         -62.04          52.51          95.92
    0.4576              -24.46          27.59          6.106           34.1         -14.23          1.447         -161.9         -4.371         -62.26           52.7          95.81
    0.4719              -24.48          27.58          6.173          34.15         -14.18           1.46         -161.1         -4.244         -62.52          52.92          95.67
    0.4862              -24.51          27.57          6.251           34.2         -14.12          1.474         -160.3         -4.094         -62.81          53.19          95.52
    0.5006              -24.55          27.56          6.343          34.27         -14.05          1.492         -159.3         -3.919         -63.16           53.5          95.34
    0.5149              -24.59          27.54          6.452          34.35         -13.96          1.512         -158.1         -3.709         -63.58          53.87          95.12
    0.5292              -24.63          27.52          6.583          34.45         -13.86          1.536         -156.6         -3.459         -64.08          54.31          94.86
    0.5435              -24.69           27.5          6.742          34.56         -13.74          1.566         -154.9         -3.156         -64.68          54.84          94.55
    0.5578              -24.76          27.47          6.936          34.71         -13.59          1.602         -152.7         -2.785         -65.42           55.5          94.16
    0.5721              -24.85          27.43          7.175          34.88         -13.41          1.646         -150.1         -2.328         -66.33           56.3          93.69
    0.5864              -24.96          27.39          7.473           35.1         -13.18          1.702         -146.8         -1.758         -67.47          57.31           93.1
    0.6007               -25.1          27.33          7.849          35.37         -12.89          1.772         -142.7          -1.04          -68.9          58.58          92.35
